<?xml version="1.0" encoding="utf-8"?>
<!-- Generator: Adobe Illustrator 14.0.0, SVG Export Plug-In . SVG Version: 6.00 Build 43363)  -->
<!DOCTYPE svg PUBLIC "-//W3C//DTD SVG 1.1//EN" "http://www.w3.org/Graphics/SVG/1.1/DTD/svg11.dtd">
<svg version="1.1" id="Layer_1" xmlns="http://www.w3.org/2000/svg" xmlns:xlink="http://www.w3.org/1999/xlink" x="0px" y="0px"
	 width="800px" height="800px" viewBox="0 0 800 800" enable-background="new 0 0 800 800" xml:space="preserve">
<g>
	<g>
		<radialGradient id="SVGID_1_" cx="393.1138" cy="715.5186" r="600.8837" gradientUnits="userSpaceOnUse">
			<stop  offset="0" style="stop-color:#2BACC1"/>
			<stop  offset="1" style="stop-color:#1C6273"/>
		</radialGradient>
		<polygon fill="url(#SVGID_1_)" points="196.821,20.221 135.382,15.727 64.951,57.682 21.495,122.122 12.505,194.046 
			12.505,654.076 34.982,708.021 87.429,761.97 145.868,787.446 207.309,785.948 661.351,785.948 704.807,764.967 751.26,720.012 
			781.226,669.064 784.212,606.125 782.719,150.59 757.248,89.154 706.3,44.194 646.357,18.723 		"/>
		<path fill="#CAA58C" d="M689.846,303.687c-22.666-14.001-40.683,7.004-59.233,14.933c-3.484,1.485-7.556,7.275-10.06,10.104
			c-0.625-5.8-1.928-10.98-3.749-15.645c6.486-66.037,21.284-136.875,7.497-201.138C609.953,45.018,542.54,7.213,476.784,9.903
			c-39.411,1.609-79.026,10.308-118.446,15.624c-5.93-4.58-12.738-8.122-20.547-10.375c-60.515-17.49-134.127,21.297-159.617,75.104
			c-3.547,7.486-6.676,15.21-9.829,22.872l-2.997,29.969c-6.17,28.105-0.235,66.481,1.488,94.396
			c1.567,25.49,15.544,73.022,6.004,94.557c-27.419-20.24-85.758-62.132-90.666,3.108c-2.991,39.75,17.606,91.711,47.006,117.632
			c20.31,17.916,38.548,24.683,65.878,21.734c25.945,53.647,76.53,80.902,105.313,130.31c13.297,22.835,18.591,60.674,43.438,74.709
			c7.576,4.272,14.676,5.597,21.212,4.78c40.634,7.254,81.316,8.35,100.895-34.873c9.884-21.855,16.116-38.009,35.154-53.982
			c17.905-15.009,39.21-24.867,52.694-44.71c3.437-5.052,6.015-10.647,8.286-16.455c1.191-1.286,2.457-2.711,3.78-4.32
			c8.735-10.546,9.815-27.372,15.852-39.581c0.423-0.519,0.836-1.069,1.291-1.577c3.119-3.483,6.312-6.067,9.604-8.021l-3.643,0.085
			c11.319-9.09,32.847-6.682,46.077-10.965c39.861-12.907,62.796-61.833,68.43-100.532
			C706.385,349.245,710.366,316.354,689.846,303.687z"/>
		<g>
			<path fill="#A08470" d="M148.112,414.517c-4.998-9.244,2.722-16.873,6.838-24.698c11.706-22.266-7.791-38.395-21.818-54.916
				l-8.993-4.495c-3.039-3.346-6.552-6.692-10.485-8.315c-14.737,35.687,4.823,89.951,31.231,116.698
				c6.435,6.512,17.638,14.592,27.39,10.097c9.599-4.427,8.172-12.023,1.721-18.525
				C167.183,423.501,152.973,423.512,148.112,414.517z"/>
			<path fill="#A08470" d="M397.077,511.79c1.933,3.728,5.846,3.462,10.595,3.028c23.035-2.102,30.93-33.492,36.832-51.049
				l-17.238,17.985c-6.088,8.466-20.701,19.245-30.188,24.963c-9.482-5.718-24.094-16.497-30.18-24.963l-17.233-17.985
				c5.898,17.557,13.794,48.947,36.833,51.049C391.248,515.252,395.147,515.518,397.077,511.79z"/>
			<path fill="#A08470" d="M187.826,391.846l-1.496,13.488c2.604,11.4,2.785,22.09,7.862,32.917
				c6.915,14.739,17.726,28.474,28.568,40.513c10.036,11.15,25.617,28.018,38.961,34.529c-2.941-9.847-6.785-19.784-11.192-29.033
				C234.146,449.931,197.957,428.064,187.826,391.846z"/>
			<path fill="#A08470" d="M680.506,322.093c-3.934,1.623-7.443,4.969-10.482,8.315l-8.99,4.495
				c-14.03,16.521-33.529,32.65-21.818,54.916c4.119,7.825,11.833,15.454,6.825,24.698c-4.845,8.995-19.061,8.984-25.868,15.846
				c-6.454,6.502-7.879,14.099,1.72,18.525c9.758,4.495,20.955-3.585,27.383-10.097
				C675.688,412.044,695.245,357.779,680.506,322.093z"/>
			<path fill="#A08470" d="M612.463,318.681c5.739-4.151,7.946-11.396,8.105-19.322c0.498-24.735-4.992-50.799-14.48-73.11
				c-14.554-34.183-7.401-75.741-23.496-109.308l3.511-15.806c-1.604-5.334-3.203-10.689-5.067-15.949
				c-7.799-22.091-18.826-37.643-42.916-42.496c-36.081-7.264-78.647,1.355-113.066,12.339c-8.99,2.87-18.705,6.433-27.976,10.994
				c-9.262-4.561-18.98-8.124-27.97-10.994C334.691,44.046,292.13,35.427,256.046,42.69c-24.084,4.853-35.123,20.405-42.921,42.496
				c-1.858,5.26-3.455,10.615-5.066,15.949l3.51,15.806c-16.095,33.566-8.94,75.125-23.489,109.308
				c-9.498,22.311-14.991,48.375-14.485,73.11c0.164,7.925,2.369,15.171,8.098,19.322c-4.299,0.307-6.822,1.933-5.853,10.229
				l3.746,5.993c3.915,0.122,14.628,0.895,23.475,0.323c1.52,21.093,2.327,46.521,19.96,60.705
				c15.025,12.085,41.007,15.706,59.623,16.034c17.553,0.312,50.238,1.402,64.872-9.427c16.934-12.532,12.608-40.052,25.717-56.099
				c5.718-6.999,11.777-10.898,17.662-12.198c0.013,0,0.013-0.005,0.026-0.005c0.183-0.037,0.365-0.061,0.545-0.098
				c1.239-0.209,2.504-0.334,3.767-0.376c0.169,0,0.352-0.008,0.532-0.008c0.148,0,0.28,0.008,0.426,0.008
				c10.883,0.432,20.582,9.657,25.527,24.235c0.884-1.271,1.693-2.698,2.425-4.233l3.685,109.011l14.634-64.085
				c1.229,1.395,2.615,2.69,4.193,3.849c14.628,10.829,47.32,9.739,64.855,9.427c18.626-0.328,44.61-3.949,59.641-16.034
				c17.625-14.184,18.44-39.612,19.955-60.705c8.847,0.572,19.562-0.201,23.475-0.323l3.738-5.993
				C619.293,320.613,616.768,318.988,612.463,318.681z M591.836,319.091c-16.275-4.879-34.498-4.444-51.229-2.92
				c-39.385,3.587-79.468-2.271-118.933-3.232c-6.787-0.169-15.809-1.197-24.598-1.144c-8.77-0.053-17.794,0.974-24.592,1.144
				c-39.464,0.961-79.542,6.819-118.93,3.232c-16.733-1.524-34.948-1.959-51.226,2.92c-0.458-0.053-0.916-0.103-1.376-0.151
				l14.596-5.016c19.018-13.146,25.545-58.223,26.943-79.606c1.89-28.915-3.396-59.426-12.725-86.801
				c-3.142-9.231-7.423-20.505-13.768-28.65c8.127-31.645,29.609-51.276,60.795-22.634c25.9,23.793,39.475,57.73,68.345,79.056
				c15.78,11.669,35.091,19.012,51.938,16.235c16.862,2.777,36.166-4.566,51.948-16.235c28.876-21.326,42.445-55.263,68.34-79.056
				c31.189-28.643,52.679-9.011,60.806,22.634c-6.353,8.145-10.626,19.419-13.775,28.65c-9.318,27.375-14.612,57.886-12.723,86.801
				c1.397,21.384,7.921,66.46,26.948,79.606l14.592,5.016C592.746,318.988,592.286,319.038,591.836,319.091z"/>
			<path fill="#A08470" d="M397.077,542.217c-15.203-14.999-59.045-2.875-72.141,7.725l18.734-8.249
				c10.258,0,20.844-0.551,30.721,0.752c6.856,0.9,16.492,6.459,22.686,3.643c6.197,2.816,15.83-2.742,22.692-3.643
				c9.879-1.303,20.473-0.752,30.729-0.752l18.73,8.249C456.131,539.342,412.288,527.218,397.077,542.217z"/>
			<path fill="#A08470" d="M397.077,557.375l-3.957-5.941c-10.213-0.095-25.853,3.113-35.158,9.604
				c11.886-2.171,28.238,3.812,39.115-2.573c10.886,6.385,27.234,0.402,39.131,2.573c-9.318-6.491-24.952-9.699-35.171-9.604
				L397.077,557.375z"/>
			<path fill="#A08470" d="M543.636,484.26c-4.415,9.249-8.248,19.187-11.192,29.033c13.342-6.512,28.929-23.379,38.956-34.529
				c10.854-12.039,21.665-25.773,28.579-40.513c5.072-10.827,5.247-21.517,7.857-32.917l-1.493-13.488
				C596.198,428.064,560.006,449.931,543.636,484.26z"/>
		</g>
		<g>
			<path fill="#3A2E1C" d="M623.56,106.975c-9.964-58.934-56.374-77.02-110.673-83.905c-75.074-9.503-157.519-12.505-232.603-2.123
				c-59.09,8.169-100.029,35.861-110.663,96.784c-9.996,57.234-1.456,117.874,3.722,175.22l3.995,7.986
				c-0.084-19.997,6.136-50.627,20.381-70.277c10.461-9.056,18.607-15.828,31.393-20.804
				c-12.084-34.019-26.98-89.957-11.391-124.833c21.456-48.004,71.667-2.973,93.806,18.347
				c14.819,14.269,58.765,66.696,84.215,50.175c6.184,2.314,13.038,2.944,20.751,1.043c20.468-5.048,36.298-24.555,50.121-39.165
				c20.553-21.744,71.845-75.524,101.583-38.418c25.514,31.822,1.012,95.423-5.125,130.855
				c37.511,13.204,41.217,51.44,52.822,82.685c0.593-6.467,1.196-12.937,1.795-19.407C622.606,217.77,632.57,160.326,623.56,106.975
				z"/>
			<path fill="#3A2E1C" d="M562.585,486.954c-16.339,19.022-38.136,28.748-57.339,42.773c-4.251-16.175-24.782-22.813-39.024-26.43
				c-30.21-7.65-62.622-0.857-93.538-3.802c-21.323-2.033-61.616,2.092-72.287,22.618c-0.4-0.19-0.805-0.354-1.22-0.466
				c-7.309-1.996-13.691,6.236-21.919,4.108c-6.83-1.769-12.905-9.244-17.964-13.554c-11.208-9.541-22.58-19.25-31.443-31.089
				c-9.993-13.362-20.487-33.322-34.63-42.757c-0.506,18,0.228,35.271,8.529,51.594c8.106,15.93,21.059,27.562,29.559,43.535
				c13.098,24.587,42.122,48.962,64.223,65.598c11.452,8.619,21.559,21.489,35.922,23.973c2.685,2.414,6.155,4.203,10.472,5.008
				c22.946,4.262,49.005,2.335,72.38,3.749c5.474,0.328,9.837-0.116,13.268-1.154c11.425,3.155,23.396,1.503,35.843-5.167
				c33.238-17.8,61.986-49.228,87.759-76.191c28.05-29.336,33.217-63.527,43.346-100.424
				C582.401,458.391,572.691,475.189,562.585,486.954z M428.822,583.364c-6.83-14.761-17.217-31.761-34.988-30.559
				c-21.643,1.466-20.688,27.281-40.428,33.841l-5.244-2.25c-0.521-0.095-1.014-0.137-1.517-0.201
				c-8.76-6.66-18.003-14.834-24.06-23.083c-2.094-2.838-4.214-7.825-6.499-13.326c18.684-28.446,46.207-23.184,77.531-19.642
				c16.674,1.879,32.674-6.401,49.086-4.363c18.436,2.293,24.64,19.918,40.237,26.557c0.148,0.059,0.291,0.111,0.435,0.175
				C468.763,567.646,443.933,596.182,428.822,583.364z"/>
			<path fill="#3A2E1C" d="M347.416,285.453l-123.623-11.989c-15.537,7.174-2.722,17.858,7.176,20.754
				c12.656,3.701,25.283,1.464,38.077,2.637c24.473,2.231,52.938,14.39,77.769,10.29c2.623,1.778,6.457,2.472,10.21,0.656
				c1.136-2.613,1.284-5.114,0.474-7.576C361.404,293.382,358.794,284.153,347.416,285.453z"/>
			<path fill="#3A2E1C" d="M569.049,243.439c-7.534-5.577-30.845-5.339-40.523-6.353c-14.009-1.475-28.081-2.337-42.084-4.016
				c-13.353-1.596-28.807-5.162-42.229-3.542c-11.891,1.435-21.469,17.458-4.643,19.959l113.882,15.732
				C565.597,266.565,583.979,254.502,569.049,243.439z"/>
			<path fill="#3A2E1C" d="M503.748,356.824c20.404,1.125,29.775-17.888,26.229-35.904l-51.943-1.003
				C478.261,339.111,479.553,355.481,503.748,356.824z"/>
			<path fill="#3A2E1C" d="M297.755,356.405c0.151,0.188,0.286,0.382,0.461,0.569c1.315-0.648,2.562-1.559,3.73-2.628
				c5.625-3.481,10.181-9.299,11.415-15.356c4.068-6.406,4.421-13.754-2.158-20.074l-48.949,1.001
				c-3.039,27.846,10.242,36.234,24.399,34.776c-0.146,0.625-0.244,1.281-0.249,2.017
				C290.02,358.081,293.991,357.804,297.755,356.405z"/>
		</g>
		<polygon fill="#846D2B" points="133.884,770.96 135.382,717.021 156.361,675.058 186.33,649.581 231.284,636.097 316.696,637.595 
			328.685,667.571 360.149,688.542 393.12,694.541 442.562,682.555 475.529,639.093 530.978,639.093 583.418,642.095 
			634.371,672.061 659.842,711.027 661.351,785.948 234.281,787.446 150.365,781.453 		"/>
		<g>
			<path fill="#010101" d="M623.046,800.947h-445.91C79.46,800.947,0,721.489,0,623.818V177.893C0,80.223,79.46,0.765,177.136,0.765
				h445.91c97.671,0,177.134,79.458,177.134,177.128v445.925C800.18,721.489,720.717,800.947,623.046,800.947L623.046,800.947z
				 M177.136,30.73c-81.149,0-147.167,66.019-147.167,147.163v445.925c0,81.142,66.018,147.152,147.167,147.152h445.91
				c81.147,0,147.162-66.011,147.162-147.152V177.893c0-81.144-66.015-147.163-147.162-147.163H177.136L177.136,30.73z"/>
		</g>
		<path fill="#FFFFFF" d="M288.975,325.19c0,2.07,1.675,3.749,3.748,3.749c2.067,0,3.743-1.678,3.743-3.749
			c0-2.07-1.676-3.749-3.743-3.749C290.65,321.441,288.975,323.12,288.975,325.19z"/>
		<path fill="#FFFFFF" d="M504.743,325.19c0,2.07,1.679,3.749,3.76,3.749c2.064,0,3.737-1.678,3.737-3.749
			c0-2.07-1.673-3.749-3.737-3.749C506.422,321.441,504.743,323.12,504.743,325.19z"/>
		<g>
			<path fill="#FFFFFF" d="M317.191,319.917c0.468,48.131-59.411,47.89-56.936-1.001l-46.956-0.998
				c10.266,35.861,18.035,68.396,60.462,69.216c16.87,0.32,44.361,4.453,59.448-4.447c11.348-6.687,26.027-34.31,26.017-47.474
				C359.202,313.521,333.312,319.075,317.191,319.917z"/>
			<path fill="#FFFFFF" d="M563.299,318.059c-29.262-16.577-31.512,26.872-47.289,36.185c-26.763,15.779-43.89-14.695-39.072-37.124
				c-14.645-3.762-38.479,3.571-47.861,1.797l2.002,6.997c16.974,20.767,5.729,55.469,37.071,62.859
				c19.53,4.604,62.293,1.29,80.161-8.452C565.152,371.146,585.716,330.754,563.299,318.059z"/>
		</g>
		<g>
			<path fill="#A08470" d="M343.596,650.619c2.877,10.08,4.58,23.803,11.312,31.936l13.482,5.241
				c2.782,1.62,5.845,2.679,8.916,2.838C368.385,678.996,356.242,659.175,343.596,650.619z"/>
			<path fill="#A08470" d="M418.012,690.634c3.07-0.159,6.131-1.218,8.915-2.838l13.479-5.241
				c6.734-8.133,8.435-21.855,11.314-31.936C439.072,659.175,426.927,678.996,418.012,690.634z"/>
			<path fill="#A08470" d="M397.66,636.128c-29.032-0.63-59.111-10.139-83.214-24.757l3.748,12.733
				c13.241,10.112,24.341,23.485,38.935,31.756c8.63,4.882,27.115,11.001,40.531,9.826c13.417,1.175,31.893-4.944,40.529-9.826
				c14.602-8.271,25.693-21.644,38.929-31.756l3.749-12.733C456.776,625.989,426.684,635.498,397.66,636.128z"/>
		</g>
		<g>
			<path fill="#010101" d="M440.725,253.88l121.373,14.986c0.635,0.071,1.255,0.108,1.848,0.108c7.555,0,13.945-5.649,14.866-13.151
				c0.487-3.965-0.593-7.896-3.06-11.047c-2.451-3.16-6.004-5.17-9.975-5.657l-121.368-14.986c-0.625-0.069-1.229-0.114-1.832-0.114
				c-7.561,0-13.961,5.654-14.888,13.146C426.684,245.372,432.528,252.866,440.725,253.88z M435.123,238.09
				c0.477-3.804,3.722-6.573,7.454-6.573c0.297,0,0.604,0.018,0.911,0.053l121.367,14.986c4.108,0.503,7.036,4.243,6.523,8.352
				c-0.472,3.796-3.706,6.578-7.434,6.578c-0.302,0-0.604-0.019-0.921-0.063L441.65,246.439
				C437.548,245.936,434.614,242.193,435.123,238.09z"/>
			<path fill="#010101" d="M705.548,302.315c-4.267-6.03-10.329-9.768-17.514-10.795c-17.439-2.488-35.795,7.24-50.068,17.908
				h-11.77c5.512-67.503,8.333-137.084,8.333-181.319c0-29.354-10.758-54.974-31.374-75.354l-0.424-0.879l-0.953-0.456
				c-6.358-6.083-13.596-11.682-21.712-16.759c-26.36-16.473-52.43-21.587-53.525-21.799l-1.7,8.947l-60.525-2.631l-0.084-5.863
				l-67.36,2.93l-67.36-2.93l-0.085,5.863l-61.864,2.685l-1.721-9c-1.096,0.212-27.155,5.326-53.513,21.799
				c-35.634,22.268-54.471,54.585-54.471,93.448c0,44.234,2.819,113.816,8.331,181.319h-11.77
				c-14.273-10.668-32.629-20.396-50.069-17.908c-7.184,1.027-13.236,4.765-17.506,10.795
				c-14.332,20.275-7.383,62.569,0.257,100.622l0.474,2.364c3.965,19.83,23.022,40.33,34.029,50.792
				c13.31,12.643,31.546,26.365,42.275,28.515c1.999,0.397,3.96,0.572,5.877,0.572c8.31,0,15.706-3.356,21.016-6.671
				c1.157,3.833,2.343,7.349,3.563,10.461c15.804,40.497,58.733,82.899,76.458,99.249c11.19,10.323,24.383,21.384,37.27,30.67
				l-0.323-0.037c-0.042,0.455-0.418,4.479,0,10.525h-63.029c-64.83,0-117.575,48.813-117.575,108.82v41.593
				c4.326-1.271,9.294-1.017,14.988,1.08v-42.673c0-51.736,46.021-93.837,102.586-93.837h65.43
				c2.457,9.678,7.153,20.717,16.01,30.517c15.375,17.026,38.917,25.656,69.968,25.656c31.354,0,54.717-8.641,69.451-25.673
				c8.519-9.842,12.69-20.907,14.687-30.5h71.76c56.561,0,102.579,42.101,102.579,93.837v52.573
				c4.638-0.572,9.196-1.388,13.638-2.562c0.445-0.127,0.9-0.244,1.355-0.36v-49.65c0-60.007-52.753-108.82-117.572-108.82h-70.107
				c0.058-4.108-0.196-7.137-0.354-8.519c13.754-9.662,28.055-21.574,40.046-32.64c17.721-16.35,60.652-58.752,76.456-99.249
				c1.213-3.112,2.398-6.628,3.563-10.461c5.305,3.314,12.706,6.671,21.013,6.671c1.906,0,3.876-0.175,5.872-0.572
				c10.737-2.149,28.971-15.872,42.271-28.515c11.022-10.462,30.066-30.962,34.042-50.792l0.472-2.364
				C712.918,364.885,719.88,322.591,705.548,302.315z M233.331,207.822c-0.395-1.154-38.927-115.671,2.713-137.875
				c4.063-2.171,8.161-3.219,12.532-3.219c18.739,0,40.018,20.251,62.55,41.69c10.822,10.298,22.011,20.95,33.987,30.564
				c11.105,12.91,26.855,20.029,46.754,21.146c1.602,0.117,2.952,0.169,4.251,0.169l0.728-0.013l0.778,0.013
				c1.289,0,2.636-0.053,4.177-0.164c19.973-1.122,35.729-8.241,46.82-21.156c11.977-9.609,23.179-20.256,33.99-30.559
				c22.533-21.439,43.816-41.69,62.548-41.69c4.373,0,8.481,1.048,12.537,3.219c41.646,22.204,3.112,136.722,2.71,137.875
				l-1.164,3.439l3.398,1.281c36.023,13.508,46.686,56.761,48.878,93.684c-0.085,1.069-0.17,2.139-0.254,3.203H360.348
				c2.237-2.279,3.767-5.273,4.185-8.651c0.493-3.965-0.593-7.894-3.055-11.047c-2.464-3.161-6.009-5.17-9.98-5.654l-121.376-14.986
				c-0.617-0.074-1.228-0.116-1.829-0.116c-7.558,0-13.953,5.654-14.88,13.148c-1.011,8.204,4.839,15.698,13.038,16.712
				l85.827,10.594H182.055c1.763-37.587,11.979-82.989,49.047-96.887l3.404-1.281L233.331,207.822z M597.184,429.844
				c-0.265,1.525-0.535,3.033-0.805,4.526c-5.94,9.874-44.728,72.157-87.537,89.888c-7.646-5.384-26.615-18.207-39.931-22.644
				c-13.014-4.342-39.496-5.771-51.196-6.21c14.157-12.209,26.583-31.544,28.526-34.631c0,0-35.25,37.214-49.127,37.214
				c-13.845,0-48.136-36.239-48.136-36.239c1.858,3.012,13.734,21.749,27.539,33.703c-12.143,0.467-37.55,1.938-50.204,6.163
				c-13.313,4.437-32.291,17.271-39.933,22.649c-46.493-19.081-89.504-87.707-89.941-88.416l-0.162,0.063
				c-0.458-2.51-0.908-5.072-1.353-7.692l42.699,42.699l-44.558-54.263c-3.984-25.924-7.394-55.927-10.218-87.116l-0.328-5.127
				h28.007c0.979,10.472,5.602,46.323,23.75,59.94c13.305,9.974,45.428,11.838,58.622,12.171c2.006,0.051,4.442,0.09,7.166,0.09
				c15.025,0,38.646-1.22,45.895-8.458c5.318-5.329,7.833-15.836,11.009-29.141c3.039-12.688,7.192-30.066,13.472-34.461
				l-0.101-0.143h50.186l7.301,138.362V333.288c3.177,7.349,5.622,17.511,7.581,25.728c3.177,13.305,5.697,23.812,11.013,29.141
				c7.253,7.237,30.871,8.458,45.902,8.458c2.721,0,5.156-0.04,7.163-0.09c13.193-0.333,45.314-2.197,58.625-12.171
				c18.154-13.617,22.766-49.468,23.75-59.94h28.135c-2.986,33.833-6.64,66.471-10.991,94.25l-42.906,52.256L597.184,429.844z
				 M511.425,577.207c-34.074,31.438-62.378,48.401-71.717,48.401h-24.116h-38.8h-24.113c-9.339,0-37.648-16.964-71.728-48.401
				c-35.319-32.581-62.481-67.604-72.657-93.684c-2.954-7.565-5.726-17.467-8.32-29.146c16.32,22.733,50.736,65.349,87.495,78.319
				c0,0,25.479-18.736,41.216-23.979c15.73-5.241,54.696-5.992,54.696-5.992s7.489,8.232,11.984,8.237
				c0.754,0,1.506,0.096,2.248,0.233c0.741-0.138,1.496-0.233,2.25-0.233c4.489-0.005,11.986-8.237,11.986-8.237
				s38.961,0.751,54.69,5.992c15.735,5.242,41.223,23.979,41.223,23.979c35.557-12.548,68.186-54.288,84.656-78.361
				c-2.594,11.7-5.368,21.611-8.317,29.188C573.92,509.604,546.754,544.626,511.425,577.207z M288.223,361.628
				c17.487,0,31.721-14.231,31.721-31.718c0-1.877-0.183-3.711-0.506-5.498h32.711c-4.399,8.754-7.1,20.052-9.75,31.117
				c-1.957,8.177-4.622,19.33-6.925,21.905c-2.854,1.846-18.318,4.866-43.734,4.061c-22.657-0.709-42.135-4.386-48.473-9.135
				c-11.327-8.495-16.283-34.848-17.681-47.948h31.422c-0.32,1.787-0.506,3.621-0.506,5.498
				C256.504,347.397,270.738,361.628,288.223,361.628z M288.599,335.776c3.37,0,6.099-2.727,6.099-6.097
				c0-0.183-0.037-0.36-0.053-0.535c-0.768,1.062-2.012,1.76-3.423,1.76c-2.332,0-4.222-1.888-4.222-4.222
				c0-0.842,0.262-1.615,0.688-2.271h24.105c0.418,1.771,0.654,3.603,0.654,5.498c0,13.357-10.861,24.224-24.224,24.224
				c-13.353,0-24.225-10.867-24.225-24.224c0-1.896,0.241-3.728,0.657-5.498h20.958c-1.845,1.045-3.11,2.996-3.11,5.268
				C282.502,333.05,285.236,335.776,288.599,335.776z M348.748,306.379l-121.378-14.985c-4.106-0.503-7.025-4.246-6.518-8.352
				c0.466-3.801,3.711-6.57,7.441-6.57c0.302,0,0.606,0.019,0.914,0.053l121.375,14.985c4.106,0.503,7.021,4.244,6.518,8.352
				c-0.469,3.796-3.701,6.578-7.428,6.578C349.367,306.44,349.058,306.422,348.748,306.379z M504.002,361.628
				c17.487,0,31.725-14.231,31.725-31.718c0-1.877-0.181-3.711-0.509-5.498h31.586c-1.402,13.101-6.358,39.453-17.683,47.948
				c-6.338,4.749-25.826,8.426-48.465,9.135c-25.429,0.805-40.894-2.215-43.747-4.061c-2.309-2.575-4.972-13.728-6.925-21.905
				c-2.653-11.065-5.358-22.363-9.758-31.117h32.561c-0.318,1.787-0.498,3.621-0.498,5.498
				C472.289,347.397,486.515,361.628,504.002,361.628z M504.384,335.776c3.367,0,6.088-2.727,6.088-6.097
				c0-0.183-0.036-0.36-0.053-0.535c-0.762,1.062-2.001,1.76-3.42,1.76c-2.34,0-4.22-1.888-4.22-4.222
				c0-0.842,0.254-1.615,0.693-2.271h24.101c0.413,1.771,0.656,3.603,0.656,5.498c0,13.357-10.875,24.224-24.228,24.224
				c-13.357,0-24.231-10.867-24.231-24.224c0-1.896,0.243-3.728,0.656-5.498h20.971c-1.853,1.045-3.113,2.996-3.113,5.268
				C498.284,333.05,501.017,335.776,504.384,335.776z M336.812,26.352l0.08-5.217l59.811,2.6l0.169,0.005l59.99-2.604l0.074,5.217
				l74.82,3.253c9.206,2.645,25.068,8.14,40.729,17.993c31.221,19.658,47.062,46.741,47.062,80.511
				c0,35.785-1.832,88.252-5.433,142.564c-6.363-27.202-19.567-52.472-45.499-63.8c6.448-20.132,35.97-120.42-7.392-143.535
				c-5.104-2.724-10.504-4.108-16.062-4.108c-21.729,0-43.038,20.28-67.71,43.763c-10.784,10.266-21.95,20.889-33.783,30.36
				l-0.509,0.498c-9.736,11.46-23.793,17.784-41.828,18.806c-1.421,0.101-2.599,0.146-3.706,0.146l-0.778-0.008l-0.728,0.008
				c-1.106,0-2.285-0.045-3.767-0.151c-17.979-1.017-32.028-7.34-41.756-18.8l-0.519-0.498
				c-11.83-9.472-22.996-20.095-33.789-30.363c-24.669-23.48-45.977-43.76-67.712-43.76c-5.551,0-10.957,1.384-16.058,4.108
				c-43.353,23.115-13.829,123.403-7.383,143.535c-26.527,11.584-39.737,37.744-45.934,65.647l-4.805-75.135
				c-1.033-26.339-1.554-50.183-1.554-69.277c0-11.425,1.821-22.088,5.43-31.954l6.695-14.091
				c7.859-13.244,19.515-24.762,34.932-34.466c15.525-9.773,31.25-15.253,40.497-17.924L336.812,26.352z M166.817,469.912
				c-4.55-0.911-18.787-9.382-34.893-24.683c-16.542-15.714-27.351-31.343-29.659-42.866l-0.474-2.377
				c-4.344-21.641-14.52-72.324-2.713-89.02c1.909-2.697,4.257-4.164,7.391-4.611c22.43-3.185,52.504,25.217,62.204,36.443
				l0.447-0.389c3.044,31.464,6.697,61.414,10.946,86.926c-9.935-3.605-24.32-10.261-29.532-18.515
				c-6.806-10.782,13.667-24.701,13.874-24.833l1.991-1.308l-0.336-2.356c-3.232-22.615-36.073-55.056-48.48-61.259
				c-2.734-1.366-5.501-1.275-7.793,0.252c-8.137,5.421,0.858,40.298,0.858,40.298c-1.099-15.968,0.429-32.015,3.203-34
				c0.08,0.016,0.201,0.061,0.381,0.15c10.363,5.184,39.385,33.778,43.996,53.42c-6.166,4.606-23.179,19.147-14.027,33.644
				c7.732,12.24,28.637,20.087,37.309,22.914c1.641,9.17,3.362,17.662,5.17,25.328C183.116,465.957,174.96,471.542,166.817,469.912z
				 M454.235,665.062c-11.759,13.597-31.306,20.489-58.116,20.489c-26.551,0-46.315-6.936-58.744-20.6
				c-10.975-12.077-13.921-27.061-14.625-36.229c11.729,7.189,22.376,11.87,29.929,11.87h24.113h38.8h24.116
				c6.956,0,16.545-3.982,27.196-10.229C466.603,639.13,464.353,653.355,454.235,665.062z M690.586,399.986l-0.471,2.377
				c-2.303,11.523-13.104,27.152-29.653,42.866c-16.105,15.301-30.348,23.771-34.891,24.683c-8.147,1.63-16.301-3.955-19.864-6.841
				c1.679-7.126,3.282-15.005,4.828-23.443l0.472-1.366l-0.206-0.074c0-0.031,0-0.053,0.01-0.084
				c7.836-2.463,30.348-10.468,38.438-23.274c9.148-14.496-7.867-29.037-14.03-33.644c4.617-19.642,33.63-48.236,44.002-53.42
				c0.169-0.09,0.302-0.135,0.376-0.15c2.784,1.985,4.299,18.032,3.208,34c0,0,8.99-34.876,0.847-40.298
				c-2.281-1.527-5.051-1.618-7.782-0.252c-12.405,6.203-45.256,38.644-48.486,61.259l-0.339,2.356l1.991,1.308
				c0.206,0.132,20.69,14.051,13.871,24.833c-5.4,8.571-20.712,15.417-30.644,18.917c4.272-25.596,7.941-55.7,11.002-87.328
				l0.449,0.389c9.694-11.227,39.777-39.628,62.204-36.443c3.129,0.447,5.475,1.914,7.391,4.611
				C705.104,327.663,694.938,378.346,690.586,399.986z"/>
			<path fill="#010101" d="M448.983,533.465l-1.355-0.095c-18.784-1.377-29.521-1.52-35.097-0.413c0,0-1.773,0.317-2.552,0.725
				c-0.084,0.037-0.195,0.069-0.28,0.111c-4.919,2.234-8.746,3.728-12.013,4.077c-3.256-0.35-7.097-1.843-12.007-4.077
				c-0.082-0.042-0.183-0.074-0.268-0.111c-0.778-0.407-2.552-0.725-2.552-0.725c-5.583-1.106-16.32-0.964-35.104,0.413
				l-1.353,0.095c-7.647,0.546-21.812,17.456-21.812,17.456c6.276-3.69,17.89-9.663,22.347-9.985l1.366-0.101
				c24.455-1.779,31.774-1.06,33.918-0.36c3.796,1.98,10.155,4.967,14.043,4.967c0.474,0,0.948-0.043,1.421-0.074
				c0.474,0.031,0.958,0.074,1.422,0.074c3.886,0,10.263-2.986,14.054-4.967c2.149-0.699,9.466-1.419,33.921,0.36l1.371,0.101
				c4.447,0.322,16.073,6.295,22.342,9.985C470.796,550.921,456.629,534.011,448.983,533.465z"/>
			<path fill="#010101" d="M463.554,528.202c-9.668-5.432-31.025-6.967-42.863-6.967c-2.838,0-5.136,0.085-6.592,0.228
				c-7.497,0.746-16.486,5.713-16.486,5.713s-8.987-4.967-16.479-5.713c-1.451-0.143-3.746-0.228-6.594-0.228
				c-11.841,0-33.195,1.535-42.86,6.967c-11.984,6.756-21.726,23.231-21.726,23.231s23.973,38.215,44.206,38.957
				c0.225,0.01,0.445,0.021,0.665,0.021c19.793,0,30.053-26.979,30.053-26.979s4.408-7.042,12.736-7.042
				c8.339,0,12.743,7.042,12.743,7.042s10.25,26.979,30.051,26.979c0.223,0,0.445-0.011,0.662-0.021
				c20.24-0.742,44.202-38.957,44.202-38.957S475.529,534.958,463.554,528.202z M440.798,582.904c-0.132,0.01-0.265,0.01-0.392,0.01
				c-11.256,0-20.14-19.393-22.702-27.086c2.589,0.223,4.172,0.393,4.215,0.397c0,0-9.52-5.289-20.808-7.042
				c0,0-2.284-0.497-3.425-0.396c-1.13-0.101-3.415,0.396-3.415,0.396c-11.28,1.753-20.81,7.042-20.81,7.042
				c0.048-0.005,1.57-0.175,4.05-0.387c-2.562,7.688-11.428,27.075-22.689,27.075c-0.13,0-0.257,0-0.384-0.01
				c-11.002-0.402-27.142-19.367-35.528-31.496c3.68-5.258,10.009-13.051,16.442-16.672c7.023-3.95,25.026-6.015,39.186-6.015
				c3.497,0,5.252,0.138,5.848,0.195c4.842,0.481,11.468,3.643,13.617,4.823l3.608,1.97l3.608-1.97
				c2.151-1.181,8.775-4.342,13.614-4.823c0.598-0.058,2.351-0.195,5.855-0.195c14.157,0,32.158,2.064,39.184,6.015
				c6.438,3.621,12.765,11.414,16.449,16.677C466.725,565.4,450.995,582.533,440.798,582.904z"/>
		</g>
	</g>
	<path fill="#5B452F" d="M442.026,84.347c-3.182,1.806-1.99-7.349-1.408-11.37c0.572-4.021-9.551,0.836-13.204,4.41
		c-3.658,3.571-5.432,1.79-3.939-3.947l-0.217-12.272c0.45-5.914-1.869-6.719-5.162-1.779l-9.54,15.878
		c-1.652,5.697-3.135,5.509-3.293-0.418L398.33,39.8c-1.618-4.857-6.671-4.857-8.272,0l-6.93,35.049
		c-0.165,5.927-1.647,6.115-3.291,0.418l-9.546-15.878c-3.285-4.94-5.609-4.135-5.167,1.779l-0.214,12.272
		c1.496,5.736-0.272,7.518-3.928,3.947c-3.656-3.574-13.787-8.431-13.204-4.41c0.582,4.021,1.766,13.175-1.417,11.37
		c-3.182-1.811-9.712-0.765-6.424,4.18l17.193,21.228c3.693,4.641,6.356,6.39,5.903,3.889c-0.448-2.509-0.207-6.361,2.734-3.219
		c2.938,3.145,11.364,8.217,11.539,4.889c0.177-3.328,0.887-7.656,3.881-2.539c0,0,12.492,22.639,13,21.789
		c0.524,0.85,13.014-21.789,13.014-21.789c2.997-5.117,3.706-0.789,3.876,2.539c0.18,3.328,8.608-1.745,11.552-4.889
		c2.938-3.143,3.166,0.709,2.732,3.219c-0.45,2.501,2.196,0.752,5.887-3.889l17.207-21.228
		C451.747,83.582,445.214,82.536,442.026,84.347z"/>
</g>
</svg>
