<?xml version="1.0" encoding="utf-8"?>
<!-- Generator: Adobe Illustrator 14.0.0, SVG Export Plug-In . SVG Version: 6.00 Build 43363)  -->
<!DOCTYPE svg PUBLIC "-//W3C//DTD SVG 1.1//EN" "http://www.w3.org/Graphics/SVG/1.1/DTD/svg11.dtd">
<svg version="1.1" id="Layer_1" xmlns="http://www.w3.org/2000/svg" xmlns:xlink="http://www.w3.org/1999/xlink" x="0px" y="0px"
	 width="200px" height="200px" viewBox="0 0 200 200" enable-background="new 0 0 200 200" xml:space="preserve">
<g id="Layer_4" display="none">
	<polyline display="inline" fill="#00FF00" points="-114.079,526.764 -159,482.083 -177.167,427.583 -177.167,400.583 
		-150.167,364.25 65.833,364.25 92.5,400.583 92.5,427.833 74.5,481.583 29.5,526.764 -114.079,526.764 	"/>
	<path display="inline" fill="none" stroke="#FF7900" d="M92.5,80.644"/>
</g>
<g id="Layer_8" display="none">
	<polyline display="inline" fill="#FF7900" points="-177.167,202.583 -177.167,67.583 -149.667,-4.23 -114.167,-40.855 
		29.833,-40.73 67.333,-4.23 92.833,67.27 92.833,203.458 75.167,230.083 75.167,247.917 92.833,275.453 92.833,355.453 
		65.833,383.093 -149.381,383.096 -177.167,355.583 -177.167,274.249 -159.167,247.583 -159.167,229.583 -177.167,202.583 	"/>
</g>
<g id="Layer_5" display="none">
	<polygon display="inline" fill="#F200FF" points="-690.596,243.098 -631.817,267.479 -561.061,161.061 -517.692,-155.956 
		-544.29,-244.085 -578.491,-276.312 -607.106,-258.233 -629.463,-228.564 -731.779,73.466 -719.573,198.271 	"/>
	<polygon display="inline" fill="#F200FF" points="6.5,380.096 -33.5,166.096 184.5,-95.905 198.5,-43.905 198.5,86.095 	"/>
	<polygon display="inline" fill="#F200FF" points="-90.5,381.096 -50.5,167.096 -268.5,-94.905 -282.5,-42.905 -282.5,87.095 	"/>
</g>
<g id="Layer_6" display="none">
	<polygon display="inline" fill="#FF0000" points="-105,335.917 -87.5,335.917 -50.5,129.096 -50.5,119.583 -260.044,-122.742 
		-276.167,-122.742 -285.5,-78.855 -285.5,38.583 -285.5,47.583 -276.343,47.598 	"/>
	<polygon display="inline" fill="#FF0000" points="20.98,336.417 3.48,336.417 -33.519,129.594 -33.519,120.083 176.023,-122.243 
		192.146,-122.243 201.48,-78.355 201.48,39.083 201.48,48.083 192.323,48.097 	"/>
</g>
<g id="Layer_12">
</g>
<g>
	<path fill="#0F1E46" d="M152.008,111.453"/>
	<polygon fill="#0F1E46" points="146.379,61.745 146.379,61.745 131.564,36.72 61.633,21.123 3.083,55.791 108.968,83.904 
		82.706,190.264 141.256,155.592 161.202,86.776 	"/>
	<path fill="#0F1E46" d="M144.093,60.171"/>
	<path fill="#0F1E46" d="M146.715,64.593"/>
	<g>
		<polygon fill="#0F1E46" points="165.949,83.855 177.682,84.681 196.736,73.396 189.638,38.9 152.391,60.955 		"/>
		<polygon fill="#0F1E46" points="136.428,33.891 141.162,23.003 160.226,11.72 187.06,34.536 149.801,56.59 		"/>
	</g>
	<polygon fill="#0F1E46" points="64.362,77.587 102.282,87.876 92.846,125.874 70.108,106.9 	"/>
</g>
</svg>
